<?xml version="1.0" encoding="UTF-8" standalone="no"?>
<!-- Created with Inkscape (http://www.inkscape.org/) -->

<svg
   xmlns:dc="http://purl.org/dc/elements/1.1/"
   xmlns:cc="http://creativecommons.org/ns#"
   xmlns:rdf="http://www.w3.org/1999/02/22-rdf-syntax-ns#"
   xmlns:svg="http://www.w3.org/2000/svg"
   xmlns="http://www.w3.org/2000/svg"
   xmlns:sodipodi="http://sodipodi.sourceforge.net/DTD/sodipodi-0.dtd"
   xmlns:inkscape="http://www.inkscape.org/namespaces/inkscape"
   width="1000"
   height="413.47562"
   id="svg5079"
   version="1.1"
   inkscape:version="0.48.4 r9939"
   sodipodi:docname="Documento nuevo 8">
  <defs
     id="defs5081" />
  <sodipodi:namedview
     id="base"
     pagecolor="#ffffff"
     bordercolor="#666666"
     borderopacity="1.0"
     inkscape:pageopacity="0.0"
     inkscape:pageshadow="2"
     inkscape:zoom="0.175"
     inkscape:cx="61.017521"
     inkscape:cy="338.94127"
     inkscape:document-units="px"
     inkscape:current-layer="layer1"
     showgrid="false"
     fit-margin-top="0"
     fit-margin-left="0"
     fit-margin-right="0"
     fit-margin-bottom="0"
     inkscape:window-width="585"
     inkscape:window-height="468"
     inkscape:window-x="0"
     inkscape:window-y="57"
     inkscape:window-maximized="0" />
  <metadata
     id="metadata5084">
    <rdf:RDF>
      <cc:Work
         rdf:about="">
        <dc:format>image/svg+xml</dc:format>
        <dc:type
           rdf:resource="http://purl.org/dc/dcmitype/StillImage" />
        <dc:title></dc:title>
      </cc:Work>
    </rdf:RDF>
  </metadata>
  <g
     inkscape:label="Capa 1"
     inkscape:groupmode="layer"
     id="layer1"
     transform="translate(150,-325.62437)">
    <g
       transform="translate(1875.8614,474.303)"
       id="g5048">
      <g
         transform="matrix(0.91694701,0,0,0.91694701,-360.88626,593.70459)"
         id="g5025">
        <path
           id="path5023"
           d="m -1809.7812,-805.625 23.8124,157.3125 c 0.7511,5.66347 37.6876,6.7708 37.6876,0 l 0,-52.21875 17.0312,0 c 9.2321,3e-5 17.6872,-1.06854 25.4062,-3.1875 7.7187,-2.11882 14.3014,-5.3608 19.75,-9.75 5.4485,-4.54042 9.6917,-10.15304 12.7188,-16.8125 3.0268,-6.81065 4.531,-14.83008 4.5312,-24.0625 -3e-4,-17.25374 -5.8822,-30.11807 -17.6874,-38.59375 -11.8055,-8.47543 -28.3786,-12.6875 -49.7188,-12.6875 l -73.5312,0 z m 63.6562,26.78125 10.3125,0 c 18.7672,1.3e-4 28.1563,8.15437 28.1563,24.5 0,9.23242 -2.3395,15.98104 -7.0313,20.21875 -4.5405,4.23785 -11.1232,6.34382 -19.75,6.34375 l -13.8437,0 2.1562,-51.0625 z m 39.5625,85.21875 -27.2187,1.75 1.8437,48.25 42.4375,-1.40625 0,-14.4375 -21.6875,0.6875 4.625,-34.84375 z m 68.625,0 c -15.235,0 -24.7786,15.55329 -31.6875,23.84375 -7.2631,8.65094 -20.0349,23.56277 -10.4688,24.34375 13.8179,1.14144 12.4138,-3.97623 20.5626,-11.90625 l 35.0624,0 c 6.3776,7.99009 4.9858,14.04797 14.9063,13.6875 15.9435,-0.54066 3.5225,-16.19257 -0.375,-24.0625 -3.543,-7.14903 -9.9305,-25.90625 -28,-25.90625 z m 40.2813,0 8.5937,50 14.1875,0 0,-18.6875 c 0,-2.21258 -0.091,-4.30913 -0.2812,-6.28125 -0.1272,-2.02018 -0.3084,-3.87897 -0.5626,-5.5625 -0.2543,-1.73157 -0.5571,-3.23251 -0.875,-4.53125 -0.2542,-1.29866 -0.4654,-2.35537 -0.6562,-3.125 l 0.375,0 13.625,38.1875 23.7188,0 7.6874,-50 -20.5312,0 0,18.96875 c 0,4.52143 0.2729,8.40232 0.7812,11.625 0.5084,3.22272 1.0217,5.73471 1.5938,7.5625 l -0.375,0 -18.875,-38.15625 -28.4062,0 z m 104.9687,0 c -1.1556,0.003 -2.3554,0.004 -3.5937,0.0313 -9.9069,0.21579 -22.132,1.13047 -31.8438,1.53125 -0.5204,6.84385 -0.5454,15.96455 -0.7188,24.78125 0,10.48159 0.3644,20.41044 6.7813,23 5.3762,2.15787 50.1233,-1.54991 48.5625,-5.1875 -2.2547,-5.24078 -20.2993,-2.49512 -34,-2.125 l -1.1875,-13.3125 c 12.8338,-0.49324 31.8998,0.40017 29.125,-4.59375 -2.2546,-4.0077 -17.3367,-2.12932 -30.3437,-2.4375 l 0,-14.1875 c 15.4349,-0.92479 32.225,-1.14347 31.5312,-4.78125 -0.3792,-2.13095 -6.2233,-2.74177 -14.3125,-2.71875 z m 21.2187,0 0,14.21875 19.0938,-5.0625 -4.2812,40.84375 24.5,0 -2.5,-40.84375 18.125,4.34375 1.8437,-13.5 -56.7813,0 z m 92.3438,0 c -15.2351,0 -24.7785,15.55328 -31.6875,23.84375 -7.2631,8.65093 -20.0349,23.56277 -10.4687,24.34375 13.8178,1.14145 12.4136,-3.97623 20.5624,-11.90625 l 35.0626,0 c 6.3774,7.99009 4.9546,14.04797 14.875,13.6875 15.9436,-0.54067 3.5537,-16.19257 -0.3438,-24.0625 -3.543,-7.14904 -9.9305,-25.90625 -28,-25.90625 z m -258.4375,7.65625 10.625,22.625 -29.0313,0 18.4063,-22.625 z m 258.8125,0 10.5938,22.625 -29,0 18.4062,-22.625 z"
           style="font-size:149.25582886px;font-style:normal;font-variant:normal;font-weight:bold;font-stretch:normal;text-align:center;line-height:125%;letter-spacing:0px;word-spacing:0px;writing-mode:lr-tb;text-anchor:middle;fill:#999999;fill-opacity:0.97647059;stroke:none;font-family:Fira Sans;-inkscape-font-specification:Fira Sans Bold"
           inkscape:connector-curvature="0" />
        <path
           inkscape:connector-curvature="0"
           style="font-size:149.25582886px;font-style:normal;font-variant:normal;font-weight:bold;font-stretch:normal;text-align:center;line-height:125%;letter-spacing:0px;word-spacing:0px;writing-mode:lr-tb;text-anchor:middle;fill:#ee8e00;fill-opacity:0.97647059;stroke:none;font-family:Fira Sans;-inkscape-font-specification:Fira Sans Bold"
           d="m -1815.7812,-809.625 23.8124,157.3125 c 0.7511,5.66347 37.6876,6.7708 37.6876,0 l 0,-52.21875 17.0312,0 c 9.2321,3e-5 17.6872,-1.06854 25.4062,-3.1875 7.7187,-2.11882 14.3014,-5.3608 19.75,-9.75 5.4485,-4.54042 9.6917,-10.15304 12.7188,-16.8125 3.0268,-6.81065 4.531,-14.83008 4.5312,-24.0625 -3e-4,-17.25374 -5.8822,-30.11807 -17.6874,-38.59375 -11.8055,-8.47543 -28.3786,-12.6875 -49.7188,-12.6875 l -73.5312,0 z m 63.6562,26.78125 10.3125,0 c 18.7672,1.3e-4 28.1563,8.15437 28.1563,24.5 0,9.23242 -2.3395,15.98104 -7.0313,20.21875 -4.5405,4.23785 -11.1232,6.34382 -19.75,6.34375 l -13.8437,0 2.1562,-51.0625 z m 39.5625,85.21875 -27.2187,1.75 1.8437,48.25 42.4375,-1.40625 0,-14.4375 -21.6875,0.6875 4.625,-34.84375 z m 68.625,0 c -15.235,0 -24.7786,15.55329 -31.6875,23.84375 -7.2631,8.65094 -20.0349,23.56277 -10.4688,24.34375 13.8179,1.14144 12.4138,-3.97623 20.5626,-11.90625 l 35.0624,0 c 6.3776,7.99009 4.9858,14.04797 14.9063,13.6875 15.9435,-0.54066 3.5225,-16.19257 -0.375,-24.0625 -3.543,-7.14903 -9.9305,-25.90625 -28,-25.90625 z m 40.2813,0 8.5937,50 14.1875,0 0,-18.6875 c 0,-2.21258 -0.091,-4.30913 -0.2812,-6.28125 -0.1272,-2.02018 -0.3084,-3.87897 -0.5626,-5.5625 -0.2543,-1.73157 -0.5571,-3.23251 -0.875,-4.53125 -0.2542,-1.29866 -0.4654,-2.35537 -0.6562,-3.125 l 0.375,0 13.625,38.1875 23.7188,0 7.6874,-50 -20.5312,0 0,18.96875 c 0,4.52143 0.2729,8.40232 0.7812,11.625 0.5084,3.22272 1.0217,5.73471 1.5938,7.5625 l -0.375,0 -18.875,-38.15625 -28.4062,0 z m 104.9687,0 c -1.1556,0.003 -2.3554,0.004 -3.5937,0.0313 -9.9069,0.21579 -22.132,1.13047 -31.8438,1.53125 -0.5204,6.84385 -0.5454,15.96455 -0.7188,24.78125 0,10.48159 0.3644,20.41044 6.7813,23 5.3762,2.15787 50.1233,-1.54991 48.5625,-5.1875 -2.2547,-5.24078 -20.2993,-2.49512 -34,-2.125 l -1.1875,-13.3125 c 12.8338,-0.49324 31.8998,0.40017 29.125,-4.59375 -2.2546,-4.0077 -17.3367,-2.12932 -30.3437,-2.4375 l 0,-14.1875 c 15.4349,-0.92479 32.225,-1.14347 31.5312,-4.78125 -0.3792,-2.13095 -6.2233,-2.74177 -14.3125,-2.71875 z m 21.2187,0 0,14.21875 19.0938,-5.0625 -4.2812,40.84375 24.5,0 -2.5,-40.84375 18.125,4.34375 1.8437,-13.5 -56.7813,0 z m 92.3438,0 c -15.2351,0 -24.7785,15.55328 -31.6875,23.84375 -7.2631,8.65093 -20.0349,23.56277 -10.4687,24.34375 13.8178,1.14145 12.4136,-3.97623 20.5624,-11.90625 l 35.0626,0 c 6.3774,7.99009 4.9546,14.04797 14.875,13.6875 15.9436,-0.54067 3.5537,-16.19257 -0.3438,-24.0625 -3.543,-7.14904 -9.9305,-25.90625 -28,-25.90625 z m -258.4375,7.65625 10.625,22.625 -29.0313,0 18.4063,-22.625 z m 258.8125,0 10.5938,22.625 -29,0 18.4062,-22.625 z"
           id="path4965" />
      </g>
      <g
         id="g5041">
        <path
           d="m -1913.0547,264.79699 159.4148,-97.48094 -97.0351,-6.09262 -57.7589,56.86388 -4.6208,-45.35567 -106.2764,3.38473 30.0346,77.84941 76.2418,10.83121 m 198.9975,-19.243 c 34.8805,12.47781 70.3104,15.05253 119.1981,15.05253 60.1483,0 121.1206,-12.67587 121.1206,-34.36348 0,-40.10746 -124.4164,-28.02574 -124.4164,-34.26466 0,-10.10114 46.1412,-5.54568 72.5076,-1.88156 l 0,-17.52849 c -28.8383,0.89133 -166.7126,-0.29702 -159.0224,23.7674 5.2184,15.74591 118.3742,11.78469 118.3742,27.72859 0,10.29921 -80.7472,6.83301 -107.9375,-5.24869 l -39.8242,26.73836 m 254.5104,-66.84576 6.5916,81.40327 151.6068,-2.37678 0,-24.36158 -77.4512,1.18844 16.479,-58.82425 -97.2262,2.9709 m 186.8002,72.23022 c 13.5031,0 10.167,-11.01297 9.6905,-23.83317 -0.3178,-12.19899 1.5886,-21.80003 -8.7373,-21.80003 -14.2974,0 -7.4665,9.48815 -7.6252,18.18559 3.1772,11.23876 -3.3361,27.44761 6.672,27.44761 m 31.7869,-2.31553 c 4.7658,1.63782 50.1998,-6.94661 50.6765,-20.27523 0.3176,-6.04299 -6.0368,-4.51806 -15.8861,-5.70407 14.1385,-3.44517 25.8942,-7.56793 23.988,-11.74719 -3.6539,-7.51151 -47.0228,-7.51151 -62.7499,-6.72074 0,0 -2.3829,42.24459 3.9715,44.44723 m 12.8677,-26.544 c 0.6354,-3.61468 -0.6354,-10.50478 0.7943,-12.70742 4.7658,-0.0564 26.8475,0 28.4359,2.54144 2.5418,3.61467 -9.0549,5.8737 -29.2302,10.16598 m -0.4765,18.58077 c 0.1587,-3.78396 -0.6356,-9.09285 0,-11.69068 5.0834,-1.80722 19.3808,-3.55805 21.1283,-0.50819 2.8596,4.74384 -7.6253,10.27864 -21.1283,12.19887 m 120.6095,-23.09906 c 5.719,9.03634 -38.603,10.39176 -40.5093,13.83681 -1.1121,1.97685 10.0081,7.17262 23.5112,10.67418 10.4848,2.71083 33.9962,6.04299 36.6967,2.08963 2.3829,-3.50156 -12.7088,-3.27565 -20.334,-5.42179 -7.943,-2.25914 -15.0917,-2.48493 -19.6987,-5.98649 22.3992,-3.67106 38.4441,-6.32539 37.3322,-16.03945 -1.9064,-17.28188 -71.0105,-14.85335 -76.0941,-11.86008 -5.8777,3.44505 -3.8126,12.6508 -3.8126,20.67052 0,9.54455 -2.3829,24.05896 9.8494,24.05896 10.6435,0 8.2606,-14.57092 8.2606,-24.00257 0,-6.15588 0.7943,-9.65755 0,-15.81343 16.3627,-2.71084 39.2385,-1.01651 44.7986,7.79371 m 37.5803,26.71363 c 4.9247,1.97662 45.9105,-1.41204 44.4808,-4.74408 -2.0651,-4.80058 -18.5865,-2.31565 -31.1364,-1.97662 l -1.1121,-12.1426 c 11.7556,-0.45181 29.2302,0.33879 26.6884,-4.23566 -2.0651,-3.67106 -15.886,-1.97685 -27.8005,-2.25914 l 0,-12.98971 c 14.1385,-0.84711 29.548,-1.01651 28.9126,-4.34872 -0.7943,-4.46161 -27.8005,-1.80724 -45.5929,-1.07304 -0.4765,6.26898 -0.4765,14.62751 -0.6354,22.70362 0,9.60117 0.3178,18.69391 6.1955,21.06595 m -742.659,12.24303 c 13.6355,1.12641 12.2371,-3.91275 20.2786,-11.73827 0,0 33.5647,0 34.6135,0 6.2934,7.8848 4.8949,13.87252 14.6845,13.51681 15.7335,-0.53355 3.4964,-16.00676 -0.3495,-23.77298 -3.4964,-7.05481 -9.7898,-25.55151 -27.621,-25.55151 -15.0341,0 -24.4742,15.35463 -31.292,23.53584 -7.1674,8.53693 -19.7542,23.23943 -10.3141,24.01011 m 52.4447,-17.66669 -28.6698,0 18.1809,-22.29086 10.4889,22.29086"
           style="font-size:122.50061798px;font-style:normal;font-variant:normal;font-weight:normal;font-stretch:normal;text-align:start;line-height:125%;writing-mode:lr-tb;text-anchor:start;fill:#999999;fill-opacity:0.97752811;stroke:none;display:inline;font-family:Comics"
           id="text2265"
           inkscape:connector-curvature="0" />
        <path
           id="path3584"
           style="font-size:122.50061798px;font-style:normal;font-variant:normal;font-weight:normal;font-stretch:normal;text-align:start;line-height:125%;writing-mode:lr-tb;text-anchor:start;fill:#ee8e00;fill-opacity:0.97752811;stroke:none;display:inline;font-family:Comics"
           d="m -1919.5851,262.53817 159.4144,-97.48072 -97.0349,-6.09261 -57.7588,56.86375 -4.6207,-45.35557 -106.2763,3.38472 30.0346,77.84924 76.2417,10.83119 m 198.997,-19.24296 c 34.8804,12.47778 70.3103,15.0525 119.1978,15.0525 60.1482,0 121.1203,-12.67585 121.1203,-34.36341 0,-40.10736 -124.4161,-28.02567 -124.4161,-34.26458 0,-10.10112 46.1411,-5.54567 72.5074,-1.88156 l 0,-17.52845 c -28.8381,0.89133 -166.7121,-0.29701 -159.022,23.76735 5.2183,15.74588 118.3739,11.78467 118.3739,27.72853 0,10.29919 -80.7469,6.833 -107.9373,-5.24868 l -39.824,26.7383 m 254.5098,-66.8456 6.5916,81.40308 151.6065,-2.37678 0,-24.36152 -77.4511,1.18844 16.4789,-58.82412 -97.2259,2.9709 m 186.7998,72.23005 c 13.503,0 10.167,-11.01294 9.6904,-23.83312 -0.3177,-12.19895 1.5886,-21.79999 -8.7372,-21.79999 -14.2973,0 -7.4663,9.48815 -7.6252,18.18556 3.1772,11.23873 -3.3361,27.44755 6.672,27.44755 m 31.7869,-2.31553 c 4.7657,1.63782 50.1996,-6.94659 50.6763,-20.27518 0.3177,-6.04298 -6.0368,-4.51804 -15.886,-5.70406 14.1385,-3.44516 25.8941,-7.5679 23.9878,-11.74717 -3.6538,-7.51148 -47.0224,-7.51148 -62.7496,-6.72072 0,0 -2.3829,42.2445 3.9715,44.44713 m 12.8676,-26.54394 c 0.6355,-3.61467 -0.6354,-10.50476 0.7943,-12.70739 4.7658,-0.0564 26.8473,0 28.4359,2.54143 2.5418,3.61468 -9.055,5.8737 -29.2302,10.16596 m -0.4765,18.58074 c 0.1589,-3.78396 -0.6354,-9.09284 0,-11.69066 5.0835,-1.80722 19.3808,-3.55804 21.1283,-0.50819 2.8595,4.74383 -7.6253,10.27862 -21.1283,12.19885 m 120.6092,-23.09902 c 5.7189,9.03632 -38.6029,10.39174 -40.5092,13.83678 -1.112,1.97685 10.0082,7.17261 23.5113,10.67415 10.4847,2.71084 33.9959,6.04298 36.6966,2.08963 2.3829,-3.50154 -12.7089,-3.27564 -20.3342,-5.42177 -7.9428,-2.25915 -15.0915,-2.48492 -19.6985,-5.98648 22.3991,-3.67105 38.444,-6.32538 37.332,-16.03942 -1.9063,-17.28183 -71.0103,-14.85331 -76.0938,-11.86004 -5.8777,3.44503 -3.8126,12.65076 -3.8126,20.67048 0,9.54452 -2.3829,24.05889 9.8492,24.05889 10.6436,0 8.2608,-14.57088 8.2608,-24.00251 0,-6.15587 0.7943,-9.65754 0,-15.8134 16.3625,-2.71083 39.2384,-1.0165 44.7984,7.79369 m 37.5804,26.71357 c 4.9247,1.97662 45.9104,-1.41204 44.4807,-4.74407 -2.0653,-4.80057 -18.5867,-2.31565 -31.1366,-1.97662 l -1.1121,-12.14256 c 11.7556,-0.45181 29.2302,0.33879 26.6886,-4.23566 -2.0653,-3.67105 -15.886,-1.97684 -27.8005,-2.25913 l 0,-12.98968 c 14.1385,-0.8471 29.548,-1.0165 28.9124,-4.34871 -0.7943,-4.4616 -27.8005,-1.80724 -45.5926,-1.07305 -0.4767,6.26898 -0.4767,14.62749 -0.6355,22.70359 0,9.60114 0.3177,18.69385 6.1956,21.06589 m -742.6575,12.24302 c 13.6356,1.12639 12.2371,-3.91276 20.2787,-11.73826 0,0 33.5644,0 34.6133,0 6.2934,7.88478 4.8948,13.87249 14.6846,13.51678 15.7332,-0.53355 3.4963,-16.00672 -0.3497,-23.77292 -3.4963,-7.05481 -9.7896,-25.55145 -27.6209,-25.55145 -15.0341,0 -24.4741,15.35459 -31.2919,23.53578 -7.1674,8.53692 -19.7542,23.23938 -10.3141,24.01007 m 52.4446,-17.66667 -28.6697,0 18.1808,-22.29081 10.4889,22.29081"
           inkscape:connector-curvature="0" />
        <path
           inkscape:export-ydpi="90.000000"
           inkscape:export-xdpi="90.000000"
           inkscape:export-filename="/home/julio/documentos/imagenes/logos/proto18.png"
           sodipodi:nodetypes="csssssssssssssssssssssss"
           id="path1387"
           d="m -1762.2464,156.71219 c -6.613,-16.37367 31.2055,-54.20157 58.5537,-66.222007 9.3556,-4.112093 -33.2602,-5.751097 -24.0515,-10.345859 4.6042,-2.297381 31.7652,-5.333701 58.1498,-8.056692 26.3845,-2.72298 14.2887,-18.979615 22.0715,-20.989747 22.496,-5.810328 7.6055,-20.469338 37.2662,-18.06313 29.6608,2.406219 30.5594,-25.4596554 46.9298,-31.2778753 32.7405,-11.6364284 83.6461,-22.2890407 86.0766,-25.5452097 2.7033,-3.621888 155.2721,-8.100071 169.1483,5.745978 5.7713,5.758699 2.64,15.8380379 8.9664,17.76537717 6.3263,1.92733923 -88.9337,69.42071583 -91.778,72.61284583 -5.8359,6.549498 13.3171,33.602949 19.0549,35.752379 5.7378,2.14942 82.5453,19.80866 87.9836,22.06076 5.4383,2.25209 45.637,4.5541 6.7841,22.03831 -0.6471,0.2912 -2.0462,1.2495 -4.006,2.70936 -1.9599,1.45986 -95.9478,15.98016 -98.8384,18.27758 -2.8905,2.29742 41.3282,25.21827 37.8892,28.02218 -3.4391,2.80391 -85.2577,-25.45793 -88.8631,-22.47864 -3.6054,2.97927 21.4287,18.20032 18.0391,21.02389 -3.3896,2.82351 -16.7321,23.75714 -33.8051,21.99221 -13.3588,-1.38084 22.4429,-15.21442 12.1913,-28.15732 -10.2516,-12.94287 -54.5935,-22.44572 -55.4992,-21.6863 -0.9058,0.75944 -108.4742,-8.18619 -141.007,-10.91354 -32.5327,-2.72733 -10.7659,-3.33507 -23.5585,-4.1162"
           style="fill:#00d600;fill-opacity:1;stroke:none;display:inline"
           inkscape:connector-curvature="0" />
        <path
           sodipodi:nodetypes="csssccsssssssssssccssccssccssccssssssccssssssccsscccscscccsssssssssssssssssssssscccssscccscccsssssssssssssssssssssssssssssccsssssssssssssssssssssssssssssssssssssssssssssssssssssssssssssssccssssssssccsssssssssccssccssssssccssccsscccccsssssccssc"
           inkscape:export-ydpi="90.000000"
           inkscape:export-xdpi="90.000000"
           inkscape:export-filename="/home/julio/documentos/imagenes/logos/proto18.png"
           d="m -1304.8998,129.27399 c -7.6526,0.30482 -55.145,8.06009 -62.717,7.09647 -13.5109,-1.71941 -25.1063,-12.80854 -20.7426,-17.13201 9.5031,-9.41559 27.8909,-9.51019 47.177,-0.24269 8.2458,3.96228 27.8157,7.57221 40.1383,9.65591 m -171.7233,-1.03422 c 7.0604,-11.19116 13.9105,-22.38232 15.2224,-24.86924 1.3117,-2.48693 4.6022,-7.234697 7.312,-10.550594 6.9663,-8.524607 -37.8752,18.768414 -53.241,32.405394 -7.0055,6.21731 -15.269,11.3042 -18.3633,11.3042 -8.6057,0 -6.7603,-3.95638 5.5447,-11.88706 6.144,-3.95981 7.6464,-6.21634 3.3388,-5.01451 -4.3076,1.2018 -7.8319,0.73918 -7.8319,-1.02805 0,-1.76725 24.1322,-14.25457 53.6272,-27.749617 53.5465,-24.499538 55.5182,-24.248099 27.2651,3.476872 -7.6029,7.460775 -13.8894,17.267965 -13.97,21.793775 -0.1679,9.41864 -19.1118,32.46641 -26.6854,32.46641 -2.7806,0 0.721,-9.1564 7.7814,-20.34758 z m -24.523,3.16931 c 11.2646,-12.17055 16.5701,-15.66183 16.5701,-10.90406 0,6.26582 -14.8729,22.05342 -20.7756,22.05342 -3.3627,0 -1.4703,-5.01723 4.2055,-11.14936 z m -3.4626,-38.237567 c 0,-0.635602 6.0138,-1.865589 13.3643,-2.733334 7.3503,-0.867744 11.6804,-0.347682 9.6222,1.155653 -3.5942,2.625316 -22.9865,3.956317 -22.9865,1.577681 z m -16.6467,-7.853207 c -2.3395,-1.708774 0.341,-2.214115 6.2834,-1.184702 11.5684,2.003973 13.685,4.164645 4.0798,4.164645 -3.4559,0 -8.1194,-1.340974 -10.3632,-2.979943 z m -10.0636,-11.311464 c -8.8894,-3.993317 -8.3753,-4.120793 4.5691,-1.132981 30.2453,6.981106 65.3364,0.911146 51.8178,-8.963274 -2.065,-1.508339 -0.5724,-2.742427 3.317,-2.742427 3.8894,0 7.0717,2.034756 7.0717,4.521675 0,2.486932 3.7561,4.528829 8.347,4.537576 4.5907,0.0092 -0.6678,2.585705 -11.6857,5.726646 -21.8478,6.22823 -46.9533,5.457584 -63.4369,-1.947215 z m 142.6437,-14.345911 c 2.1139,-2.486932 0.7557,-4.521688 -3.0185,-4.521688 -3.7742,0 -4.8068,-1.501312 -2.2946,-3.33628 3.3116,-2.418883 5.8652,-2.388563 9.2862,0.110236 2.8354,2.071108 9.5694,-1.409496 16.8733,-8.721541 6.6852,-6.692447 14.8091,-12.168092 18.0532,-12.168092 6.5795,0 -2.1707,8.623369 -23.6851,23.341437 -15.3229,10.482625 -21.4307,12.608597 -15.2145,5.295893 z m -284.1246,2.46248 c 4.8204,-0.870818 10.5797,-0.763713 12.7987,0.237955 2.2188,1.001669 -1.7252,1.714136 -8.7643,1.583251 -7.7791,-0.144636 -9.3613,-0.85894 -4.0344,-1.821206 z m 229.0948,160.608929 c 4.4518,-0.72243 12.9183,-6.14583 20.7346,-11.85511 0,0 8.6807,-5.48037 8.8001,-10.70238 0.1195,-5.22188 -6.7512,-10.02454 -6.7512,-10.02454 -18.0062,-13.77695 -8.7519,-13.28597 29.2204,1.55024 48.7864,19.06125 67.444,15.72482 36.7116,-6.56483 l -19.106,-13.85737 37.9402,-4.84195 c 98.7457,-12.60181 110.8734,-33.89406 24.1045,-42.3197 -23.1437,-2.24733 -66.0853,-23.3837 -77.4763,-38.134748 -6.3887,-8.273329 -4.6851,-10.845167 16.4647,-24.855333 12.9749,-8.594931 28.5016,-21.053161 34.5035,-27.684967 6.002,-6.631794 19.6656,-16.772987 29.0835,-22.9295187 7.5258,-4.9196577 6.6956,-8.3294519 8.0601,-11.2383076 1.3644,-2.9088674 2.4795,-5.4778056 0.6295,-9.8428167 -5.7228,-13.503138 -25.4752,-17.575966 -59.2875,-17.689819 -15.6586,-0.05269 -34.0931,-1.681076 -40.9655,-3.618584 -9.9028,-2.791836 -17.5191,-2.4465 -36.71,1.664518 -13.3179,2.852975 -26.5739,4.528956 -29.4575,3.724452 -2.8835,-0.804526 -21.3598,2.515958 -41.0583,7.378846 -19.6985,4.862922 -41.3451,8.841633 -48.1037,8.841633 -6.7584,0 -12.2881,1.1033192 -12.2881,2.4518153 0,1.3485077 -10.5173,4.3147001 -23.3716,6.5915476 -24.4087,4.3234589 -29.1381,7.4905373 -15.0244,10.0614169 4.5907,0.8362337 0.4049,1.6275296 -9.302,1.7584146 -17.3147,0.2335066 -29.4548,7.1548376 -22.0441,12.5678416 2.065,1.508339 -0.9301,2.742427 -6.6559,2.742427 -5.7257,0 -10.4104,1.921712 -10.4104,4.270491 0,2.348743 -3.7562,4.954681 -8.3469,5.790915 -4.5909,0.836245 -2.3372,1.688725 5.0081,1.894407 10.6781,0.298966 9.3395,1.203999 -6.6776,4.514835 l -20.0327,4.140864 20.0327,0.4765 c 19.3731,0.460819 19.1532,0.600659 -6.6775,4.24686 -14.6906,2.073673 -26.0201,5.278005 -25.1765,7.120738 0.8435,1.842732 -5.1663,4.408458 -13.3552,5.701605 -12.8861,2.034906 -11.2961,2.610271 11.8214,4.277597 l 26.7103,1.926484 -27.5621,0.427783 c -28.1675,0.437154 -57.5993,9.344559 -31.6842,9.5891 7.817,0.07372 3.7437,1.855906 -10.8682,4.75494 l -23.3714,4.636949 20.0327,4.258519 c 11.0179,2.342204 14.0228,3.624709 6.6776,2.850017 -14.6403,-1.544032 -35.6361,2.965476 -28.5984,6.142438 2.4215,1.09314 -3.6754,5.4268 -13.5486,9.6304 -11.8753,5.05605 -15.1134,8.09676 -9.5669,8.98383 5.6548,0.90439 3.4811,3.18724 -6.6776,7.01271 -14.4079,5.42556 -14.482,5.67682 -1.7066,5.78709 11.6199,0.10029 10.7523,1.07839 -6.6776,7.52799 -11.018,4.07703 -17.3133,7.46156 -13.9896,7.52119 3.3238,0.0596 0.3188,3.05142 -6.6776,6.64848 -12.0172,6.17833 -12.0442,6.42839 -0.4887,4.52167 6.7275,-1.1101 24.063,-2.01833 38.5232,-2.01833 24.568,0 26.0221,-0.48428 22.1843,-7.38691 -4.688,-8.43216 20.8272,-36.02054 48.4146,-52.348281 14.1949,-8.401337 15.6531,-10.787253 8.0812,-13.222961 -7.3934,-2.37829 -7.0765,-2.662766 1.5861,-1.42409 6.8105,0.973844 21.0501,-3.155292 38.396,-11.133953 29.7218,-13.671276 32.057,-15.836917 19.2238,-17.828873 -4.5908,-0.712582 -3.2966,-0.963664 2.8759,-0.557917 6.1725,0.405748 18.1134,-2.573375 26.5352,-6.620308 13.021,-6.256957 13.8398,-7.80419 5.4711,-10.339433 -7.9365,-2.404324 -7.2565,-2.811192 3.5138,-2.102065 7.3454,0.483629 15.5628,2.235815 18.2611,3.89377 2.6983,1.657942 5.0179,-0.376813 5.1548,-4.521688 0.4319,-13.074592 24.2357,-32.436855 46.1738,-37.5581731 11.3066,-2.6394592 20.5575,-5.859622 20.5575,-7.1559239 0,-2.36581 46.2291,-12.56055 56.957,-12.56055 3.1495,0 -15.8958,6.876971 -42.323,15.2821435 -43.2964,13.770362 -61.3769,22.2523765 -61.3769,28.7932665 0,1.248163 8.2634,-1.167659 18.3633,-5.368448 35.7065,-14.85137986 49.5591,-8.3390081 68.3369,-13.6869802 l 46.8582,-13.3453288 c 11.1724,-3.181939 10.2368,-13.708022 14.4091,-15.183267 4.1725,-1.475267 24.9776,1.332481 44.0911,1.094699 24.4199,-0.303819 49.4582,3.456142 57.1962,6.010405 6.003,1.981556 8.4444,5.13181 6.3271,8.554211 -2.1171,3.4223662 -6.7704,8.1524966 -18.3921,11.67190278 -11.1398,3.37345322 -37.3406,9.87321822 -60.0161,15.33400322 -11.3378,2.730387 -21.2541,6.40908 -29.0459,6.891276 -18.1135,1.120987 -24.1975,-2.219441 -28.8261,-0.06818 -2.8197,1.310526 20.3191,5.347787 38.2296,1.475753 7.9086,-1.709768 17.6838,-4.397423 27.9042,-7.135124 20.4408,-5.475391 42.1847,-11.6026763 50.9939,-13.669359 17.6185,-4.13338839 17.0533,-8.6571209 19.9385,-7.3546142 5.7706,2.6050365 -2.562,8.956919 -29.6873,22.0672862 -41.3486,19.984842 -47.0877,22.100126 -54.4146,20.055895 -2.9298,-0.817422 -5.3775,0.289456 -5.4393,2.459742 -0.062,2.170286 -12.0815,9.271288 -26.7103,15.779974 -32.7584,14.574981 -35.4679,10.246796 -3.2411,-5.17706 12.8463,-6.148247 20.536,-11.178614 17.0881,-11.178614 -3.448,0 -8.4436,1.588427 -11.1015,3.529829 -3.1631,2.310519 -7.1107,1.008914 -11.4275,-3.768061 -5.4655,-6.048121 -7.0764,-6.394475 -9.4063,-2.022612 -3.4437,6.461841 -4.8777,6.488557 -25.2245,0.470225 -8.9348,-2.64281 -20.0974,-4.106419 -24.8059,-3.252448 -5.4619,0.990576 -4.4158,1.638773 2.8899,1.790619 13.5307,0.281217 27.8958,10.957784 21.2625,15.802911 -2.8823,2.105357 -8.2263,0.284753 -14.1532,-4.82174 -6.16,-5.307402 -13.0791,-7.588109 -19.5955,-6.459276 -5.5402,0.95977 -13.4219,1.745 -17.5146,1.745 -4.0927,0 2.5603,4.658361 14.7846,10.351913 13.8969,6.472552 20.7223,12.120819 18.2134,15.072279 -5.7435,6.756682 -22.7871,5.826031 -27.9564,-1.526549 -2.6405,-3.755778 -8.1459,-5.596674 -13.8051,-4.616313 -12.828,2.222192 -12.2567,-8.055075 1.0956,-19.711159 12.4113,-10.834675 7.8757,-14.617064 -9.1749,-7.651234 -10.5098,4.293704 -13.8577,4.389831 -25.4311,0.730412 -12.6154,-3.988915 -13.295,-3.622178 -12.7125,6.860054 0.3386,6.090829 3.2136,12.972006 6.3892,15.291538 4.2616,3.112793 3.3176,3.578499 -3.6049,1.778116 -5.1583,-1.341586 -1.4732,1.500955 8.1891,6.316755 9.6622,4.815777 16.6871,11.136299 15.6107,14.045617 -1.0765,2.909306 0.833,4.511218 4.2433,3.559768 3.4101,-0.951427 4.1845,-3.202229 1.7208,-5.001791 -2.6958,-1.969111 -1.3664,-2.403365 3.3387,-1.090632 4.3,1.199689 6.1502,3.399672 4.1115,4.88884 -2.0387,1.489169 2.4196,4.434747 9.9074,6.545743 15.8298,4.462779 18.3194,9.042693 3.5222,6.479359 -7.5002,-1.29926 -8.9238,-0.373797 -5.5428,3.603562 3.2917,3.872519 2.1921,4.694169 -3.9784,2.972609 -6.3547,-1.77291 -7.3468,-0.6995 -3.8937,4.21213 5.9556,8.47071 -21.2208,27.19138 -39.9299,27.50606 -11.4864,0.19316 -11.0191,0.66899 3.3388,3.40034 9.1816,1.74666 36.8945,7.05888 61.5842,11.80496 24.6896,4.74605 56.9295,9.49826 71.6441,10.56053 14.7146,1.06215 32.0753,3.90795 38.5793,6.32378 11.3145,4.20283 11.3143,4.31989 -0.011,2.70852 -6.5079,-0.92626 5.5118,5.69599 26.7101,14.71627 25.651,10.91475 34.7203,16.43695 27.115,16.51021 -6.2852,0.0604 -23.3278,-5.31606 -37.8723,-11.9479 -14.5446,-6.63171 -32.6901,-12.05777 -40.3234,-12.05777 -17.1225,0 -17.2159,1.37263 -0.9036,13.28759 12.9039,9.42518 12.899,9.53171 -0.8915,19.36411 -8.2026,5.8484 -13.8134,11.07907 -19.5005,10.64078 -2.924,-0.22533 -10.6834,-2.72181 -11.2943,-1.13333 -1.4163,3.68262 7.0068,5.53249 16.7889,3.94493 z m -3.0327,-6.45851 c 6.4274,-2.9015 17.0818,-13.0528 15.3863,-16.55575 -1.6953,-3.50294 -0.7015,-6.26266 -9.1387,-10.15616 -6.0543,-2.7938 -16.4449,-10.33225 -31.0188,-14.19108 -14.574,-3.85873 -33.3312,-4.03783 -33.7754,-3.70574 -0.4443,0.33198 16.7262,2.14129 30.3687,6.60642 13.6424,4.46525 23.757,11.58633 28.751,13.52551 19.9762,7.75685 2.9019,16.32361 -6.3984,21.38245 -4.6502,2.5293 -10.4632,5.83188 -6.8112,6.62121 1.884,0.4072 6.8947,-0.93481 12.6365,-3.52686 z m -46.1828,-44.35232 c -1.5406,-0.69539 -33.9201,-3.99357 -65.1274,-6.73872 -85.2342,-7.49767 -100.1448,-10.05836 -100.1448,-17.19834 0,-1.32959 22.1842,-31.04913 44.3928,-45.19899 24.0239,-15.306482 25.3103,-18.168043 22.3356,-18.407315 -4.5202,-0.363594 -27.7663,17.213595 -46.3606,32.400065 -18.5943,15.18648 -28.7789,28.19328 -31.092,29.05992 -9.6697,3.62278 -8.9764,4.69661 7.0499,10.91969 10.6001,4.11605 26.491,6.90177 39.3704,6.90177 11.8779,0 38.901,2.03474 60.0515,4.52175 36.4863,4.2902 75.5958,6.48093 69.5246,3.74017 z m -165.5803,-64.66304 c 0.29,-3.17766 -1.2881,-4.95807 -3.5071,-3.95648 -2.2189,1.00172 -2.4561,3.60174 -0.5271,5.7778 2.1316,2.40474 3.7139,1.69041 4.0342,-1.82132 z m 68.6761,7.37485 c 2.2698,-1.65793 2.2567,-4.38056 -0.029,-6.05021 -2.2859,-1.66968 0.5418,-3.84955 6.2835,-4.8442 5.7418,-0.99465 10.4395,-3.934529 10.4395,-6.533083 0,-3.632565 -3.9505,-3.049239 -17.091,2.523585 -9.3999,3.986558 -14.0761,7.701908 -10.3914,8.256378 3.6847,0.55445 5.0444,2.95523 3.0215,5.33498 -4.1805,4.91799 1.5137,5.88018 7.7671,1.31255 z m -79.8136,-19.620797 c 0.2899,-3.177778 -1.2883,-4.958194 -3.5072,-3.956479 -2.2189,1.0016 -2.4561,3.601621 -0.5272,5.777685 2.1316,2.404739 3.714,1.690516 4.0344,-1.821206 z m 371.5816,36.700157 c 37.617,1.41161 41.7404,9.57423 19.8581,17.26152 -15.2504,5.35749 -92.4448,18.20936 -99.5363,16.57142 -1.8364,-0.42408 -13.1372,-2.51625 -25.1128,-4.64921 l -21.7741,-3.87814 31.1273,-9.42112 c 31.3098,-11.04844 75.4171,-14.24155 80.6956,-15.26214 m -68.3732,6.19467 c -7.0906,-0.87337 -41.6933,-20.22497 -55.8621,-21.43745 -6.4689,-0.55358 -19.1972,23.63285 -23.0201,25.4438 -4.2165,1.99745 -6.1055,3.72296 -6.5754,3.94554 -5.436,2.57512 18.1214,5.40668 25.5794,6.28993 6.3745,0.75495 15.2774,-2.36309 18.3186,-2.8918 3.9174,-0.68103 36.1615,-7.5422 41.5596,-11.35002 z m -225.0142,-80.241026 c 0.29,-3.177779 -1.2881,-4.958194 -3.5072,-3.956479 -2.2188,1.001599 -2.456,3.601621 -0.527,5.777684 2.1316,2.40474 3.7139,1.690517 4.0342,-1.821205 z"
           style="fill:#000000;fill-opacity:1;stroke:none;display:inline"
           id="path20902"
           inkscape:connector-curvature="0" />
        <path
           inkscape:export-ydpi="90.000000"
           inkscape:export-xdpi="90.000000"
           inkscape:export-filename="/home/julio/documentos/imagenes/logos/proto18.png"
           sodipodi:nodetypes="cscsssssc"
           id="path2108"
           d="m -1340.7965,200.85474 c 16.4481,17.54862 -79.0939,-19.88525 -75.4805,-16.09596 3.6134,3.78929 14.5509,14.64608 11.4172,20.38882 -6.2591,5.7964 -24.0121,18.87684 -30.622,16.37925 -2.4696,-0.93317 27.1309,-23.78103 24.5125,-26.00333 -2.4138,-2.04875 -11.2227,-4.47782 -7.3064,-4.93279 0.5986,-0.0696 -20.9122,-12.95869 -8.4935,-12.66643 3.1048,0.073 10.2432,-0.12588 17.8399,1.96199 7.5967,2.08786 15.4157,13.32625 68.1328,20.96845 z"
           style="fill:#000000;fill-opacity:0.36516855;fill-rule:evenodd;stroke:none"
           inkscape:connector-curvature="0" />
      </g>
    </g>
  </g>
</svg>
